<?xml version="1.0" standalone="no"?><!DOCTYPE svg PUBLIC "-//W3C//DTD SVG 1.1//EN" "http://www.w3.org/Graphics/SVG/1.1/DTD/svg11.dtd"><svg t="1551950533922" class="icon" style="" viewBox="0 0 1039 1024" version="1.1" xmlns="http://www.w3.org/2000/svg" p-id="1405" xmlns:xlink="http://www.w3.org/1999/xlink" width="32.46875" height="32"><defs><style type="text/css"></style></defs><path d="M539.962335 580.45951c-142.704331 0-258.410546-115.706215-258.410546-258.410546s115.706215-258.410546 258.410546-258.410546 258.410546 115.706215 258.410546 258.410546-115.706215 258.410546-258.410546 258.410546z m0-441.612052c-100.278719 0-181.27307 80.99435-181.273069 181.273069s80.99435 181.27307 181.273069 181.27307 181.27307-80.99435 181.27307-181.27307c0-98.350282-80.99435-181.27307-181.27307-181.273069z" fill="#388CEB" p-id="1406"></path><path d="M115.706215 1006.644068c-21.212806 0-38.568738-17.355932-38.568739-38.568738 0-254.553672 208.271186-462.824859 462.824859-462.824859 21.212806 0 38.568738 17.355932 38.568738 38.568738s-17.355932 38.568738-38.568738 38.568738c-212.12806 0-385.687382 173.559322-385.687382 385.687383 0 21.212806-17.355932 38.568738-38.568738 38.568738z" fill="#388CEB" p-id="1407"></path><path d="M919.864407 833.084746h-296.979285c-21.212806 0-38.568738-17.355932-38.568738-38.568738s17.355932-38.568738 38.568738-38.568739h296.979285c21.212806 0 38.568738 17.355932 38.568738 38.568739s-17.355932 38.568738-38.568738 38.568738z" fill="#E78E00" p-id="1408"></path><path d="M771.374765 981.574388c-21.212806 0-38.568738-17.355932-38.568739-38.568738v-296.979285c0-21.212806 17.355932-38.568738 38.568739-38.568738s38.568738 17.355932 38.568738 38.568738v296.979285c0 21.212806-17.355932 38.568738-38.568738 38.568738z" fill="#E78E00" p-id="1409"></path></svg>